<?xml version="1.0" encoding="UTF-8" standalone="no"?>
<svg
   width="24"
   height="24"
   viewBox="0 0 24 24"
   version="1.1"
   id="svg1"
   xmlns="http://www.w3.org/2000/svg"
   >
  <defs
     id="defs1">
    <linearGradient
       id="swatch12">
      <stop
         style="stop-color:#1a1a1a;stop-opacity:0.17000002;"
         offset="0"
         id="stop12" />
    </linearGradient>
  </defs>
  <path
     d="m 20.798929,7.1736614 a 1.51,1.51 0 0 0 -0.55,-0.57 l -7.34,-4.24 a 1.67,1.67 0 0 0 -1.54,0 l -7.3399999,4.24 a 1.68,1.68 0 0 0 -0.77,1.33 v 8.4799996 a 1.57,1.57 0 0 0 0.22,0.76 1.51,1.51 0 0 0 0.55,0.57 l 7.3399999,4.24 a 1.67,1.67 0 0 0 1.54,0 l 7.34,-4.24 a 1.51,1.51 0 0 0 0.55,-0.57 1.57,1.57 0 0 0 0.22,-0.76 V 7.9336614 a 1.57,1.57 0 0 0 -0.22,-0.76 z m -8.66,10.9199996 a 5.92,5.92 0 1 1 5.13,-8.9199996 l -1.13,0.71 -0.36,0.1999996 -1,0.61 a 3,3 0 0 0 -5.6399999,1.48 2.88,2.88 0 0 0 0.4,1.48 3,3 0 0 0 5.1299999,0 l 2.6,1.52 a 5.94,5.94 0 0 1 -5.13,2.92 z m 5.92,-5.59 h -0.66 v 0.67 h -0.65 v -0.66 h -0.61 v -0.66 h 0.66 v -0.68 h 0.65 v 0.66 h 0.66 z m 2.47,0 h -0.66 v 0.67 h -0.66 v -0.66 h -0.65 v -0.66 h 0.65 v -0.68 h 0.66 v 0.66 h 0.66 z"
     id="path1"
     style="fill:#cdd6f4;stroke:none" />
  <rect
     style="fill:#cdd6f4;fill-opacity:1;fill-rule:evenodd;stroke:#000000;stroke-dasharray:0, 11;stroke-dashoffset:0;stroke-opacity:1"
     id="rect12"
     width="4.7583213"
     height="3.0564394"
     x="16.046309"
     y="10.523879" />
  <rect
     style="fill:#cdd6f4;fill-opacity:1;fill-rule:evenodd;stroke:#000000;stroke-dasharray:0, 11;stroke-dashoffset:0;stroke-opacity:1"
     id="rect13"
     width="0.20839363"
     height="0.034732271"
     x="20.492041"
     y="12.364689" />
</svg>
